# ProBuilder 5.0.7
# https://unity3d.com/unity/features/worldbuilding/probuilder
# 8/5/2023 1:22:06 PM

mtllib ./HoleVisual.mtl
o HoleVisual

g HoleVisual
v -0.5506233 -0.5 0
v -0.5506233 0 0
v -0.5236744 -0.5 0.170152
v -0.5236744 0 0.1701522
v -0.4454637 -0.5 0.3236485
v -0.4454637 0 0.3236485
v -0.3236485 -0.5 0.4454637
v -0.3236485 0 0.4454637
v -0.170152 -0.5 0.5236738
v -0.170152 0 0.523674
v -4.321337E-08 -0.5 0.5506232
v -4.321337E-08 0 0.5506234
v 0.170152 -0.5 0.5236738
v 0.170152 0 0.523674
v 0.3236485 -0.5 0.4454637
v 0.3236485 0 0.4454637
v 0.4454636 -0.5 0.323648
v 0.4454636 0 0.323648
v 0.5236742 -0.5 0.170152
v 0.5236744 0 0.1701522
v 0.5506232 -0.5 0
v 0.5506233 0 0
v 0.5236742 -0.5 -0.170152
v 0.5236744 0 -0.1701522
v 0.4454636 -0.5 -0.323648
v 0.4454636 0 -0.323648
v 0.3236485 -0.5 -0.4454637
v 0.3236485 0 -0.4454637
v 0.170152 -0.5 -0.5236738
v 0.170152 0 -0.523674
v -4.321337E-08 -0.5 -0.5506232
v -4.321337E-08 0 -0.5506234
v -0.170152 -0.5 -0.5236738
v -0.170152 0 -0.523674
v -0.3236485 -0.5 -0.4454637
v -0.3236485 0 -0.4454637
v -0.4454637 -0.5 -0.3236485
v -0.4454637 0 -0.3236485
v -0.5236744 -0.5 -0.170152
v -0.5236744 0 -0.1701522
v -0.5 -0.5 0
v -0.01223569 -0.5 0
v -0.4755287 -0.5 0.1545086
v -0.4045086 -0.5 0.2938929
v -0.2938929 -0.5 0.4045086
v -0.1545086 -0.5 0.4755282
v -4.321337E-08 -0.5 0.5
v 0.1545086 -0.5 0.4755282
v 0.2938928 -0.5 0.4045086
v 0.4045086 -0.5 0.2938924
v 0.4755287 -0.5 0.1545086
v 0.5 -0.5 0
v 0.4755287 -0.5 -0.1545086
v 0.4045086 -0.5 -0.2938924
v 0.2938928 -0.5 -0.4045086
v 0.1545086 -0.5 -0.4755282
v -4.321337E-08 -0.5 -0.5
v -0.1545086 -0.5 -0.4755282
v -0.2938929 -0.5 -0.4045086
v -0.4045086 -0.5 -0.2938929
v -0.4755287 -0.5 -0.1545086
v 0.4755287 0 0.1545086
v 0.4999999 0 0
v 0.4755287 0 -0.1545086
v 0.4045086 0 0.2938924
v 0.2938928 0 0.4045086
v 0.1545086 0 0.4755282
v -4.321337E-08 0 0.5
v -0.1545086 0 0.4755282
v -0.2938929 0 0.4045086
v -0.4045086 0 0.2938929
v -0.4755287 0 0.1545086
v -0.5 0 0
v -0.4755287 0 -0.1545086
v -0.4045086 0 -0.2938929
v -0.2938929 0 -0.4045086
v -0.1545086 0 -0.4755282
v -4.321337E-08 0 -0.5
v 0.1545086 0 -0.4755282
v 0.2938928 0 -0.4045086
v 0.4045086 0 -0.2938924

vt -0.0861349 -0.5
vt -0.0861349 0
vt 0.086138 -0.5
vt 0.08613818 0
vt -0.08613763 -0.4999999
vt 0.08613565 -0.4999999
vt -0.5 0
vt -0.01223569 0
vt -0.4755287 0.1545086
vt 0.5 0
vt 0.01223569 0
vt 0.4755287 0.1545086
vt -0.4045086 0.2938929
vt 0.4045086 0.2938929
vt -0.2938929 0.4045086
vt 0.2938929 0.4045086
vt -0.1545086 0.4755282
vt 0.1545086 0.4755282
vt -4.321337E-08 0.5
vt 0.5 0
vt -0.5 0
vt 0.4755287 -0.1545086
vt -0.4755287 -0.1545086
vt 0.4045086 -0.2938924
vt -0.4045086 -0.2938924
vt 0.2938928 -0.4045086
vt -0.2938928 -0.4045086
vt 0.1545086 -0.4755282
vt -0.1545086 -0.4755282
vt -4.321337E-08 -0.5
vt 0.5506232 0
vt 0.5236742 0.170152
vt -0.5236744 0.1701522
vt -0.5506233 0
vt 0.5236742 -0.170152
vt -0.5236744 -0.1701522
vt 0.4454636 0.323648
vt -0.4454636 0.323648
vt 0.3236485 0.4454637
vt -0.3236485 0.4454637
vt 0.170152 0.5236738
vt -0.170152 0.523674
vt -4.321337E-08 0.5506232
vt -0.4454637 -0.3236485
vt 0.4454637 -0.3236485
vt -0.3236485 -0.4454637
vt 0.3236485 -0.4454637
vt -0.170152 -0.5236738
vt 0.170152 -0.523674
vt -4.321337E-08 -0.5506232
vt -0.07821711 0
vt 0.07821716 0
vt -0.07821711 -0.5
vt 0.07821716 -0.5

vn -1 -1.416041E-08 3.771725E-08
vn -0.9510567 -9.635247E-08 0.3090164
vn -0.8090164 -1.291057E-08 0.587786
vn -0.5877848 4.822119E-08 0.8090172
vn -0.3090167 -2.460266E-07 0.9510566
vn -7.543453E-09 -3.576279E-07 1
vn 0.3090164 -3.401244E-07 0.9510567
vn 0.5877858 -8.065525E-08 0.8090166
vn 0.8090168 2.436672E-08 0.5877855
vn 0.9510564 -2.239777E-07 0.3090172
vn 1 -2.502189E-07 -3.771725E-08
vn 0.9510565 -3.070434E-07 -0.3090169
vn 0.8090166 -5.983134E-08 -0.5877858
vn 0.5877857 1.066803E-08 -0.8090166
vn 0.3090167 -2.594691E-07 -0.9510567
vn -7.543453E-09 -3.576279E-07 -1
vn -0.3090165 -3.401244E-07 -0.9510567
vn -0.5877851 -4.58766E-08 -0.8090171
vn -0.8090165 3.503477E-08 -0.587786
vn -0.9510567 -6.256759E-08 -0.3090166
vn 0 -1 0
vn 0 1 0
vn 0.7071068 0 -0.7071068
vn 0.4539896 0 -0.891007
vn 0.8910058 0 -0.453992
vn 0.9876888 0 -0.1564313
vn 0.9876888 0 0.1564313
vn 0.8910058 0 0.453992
vn 0.7071068 0 0.7071068
vn 0.4539896 0 0.891007
vn 0.1564345 0 0.9876884
vn -0.1564345 0 0.9876884
vn -0.4539896 0 0.891007
vn -0.7071083 0 0.7071053
vn -0.8910052 0 0.4539931
vn -0.9876888 -5.887084E-08 0.1564315
vn -0.9876888 -5.887084E-08 -0.1564315
vn -0.8910052 -5.310805E-08 -0.4539931
vn -0.7071083 0 -0.7071053
vn -0.4539896 0 -0.891007
vn -0.1564345 0 -0.9876884
vn 0.1564345 0 -0.9876884

usemtl HoleMat1
f 41/7/21 42/8/21 43/9/21
f 43/9/21 42/8/21 44/13/21
f 44/13/21 42/8/21 45/15/21
f 45/15/21 42/8/21 46/17/21
f 46/17/21 42/8/21 47/19/21
f 47/19/21 42/8/21 48/18/21
f 48/18/21 42/8/21 49/16/21
f 49/16/21 42/8/21 50/14/21
f 50/14/21 42/8/21 51/12/21
f 51/12/21 42/8/21 52/20/21
f 52/20/21 42/8/21 53/22/21
f 53/22/21 42/8/21 54/24/21
f 54/24/21 42/8/21 55/26/21
f 55/26/21 42/8/21 56/28/21
f 56/28/21 42/8/21 57/30/21
f 57/30/21 42/8/21 58/29/21
f 58/29/21 42/8/21 59/27/21
f 59/27/21 42/8/21 60/25/21
f 60/25/21 42/8/21 61/23/21
f 61/23/21 42/8/21 41/7/21
f 4/4/2 2/2/1 1/1/1
f 1/1/1 3/3/2 4/4/2
f 6/4/3 4/2/2 3/5/2
f 3/5/2 5/6/3 6/4/3
f 8/4/4 6/2/3 5/1/3
f 5/1/3 7/3/4 8/4/4
f 10/4/5 8/2/4 7/1/4
f 7/1/4 9/3/5 10/4/5
f 12/4/6 10/2/5 9/5/5
f 9/5/5 11/6/6 12/4/6
f 14/4/7 12/2/6 11/5/6
f 11/5/6 13/6/7 14/4/7
f 16/4/8 14/2/7 13/5/7
f 13/5/7 15/6/8 16/4/8
f 18/4/9 16/2/8 15/1/8
f 15/1/8 17/3/9 18/4/9
f 20/4/10 18/2/9 17/1/9
f 17/1/9 19/3/10 20/4/10
f 22/4/11 20/2/10 19/5/10
f 19/5/10 21/6/11 22/4/11
f 24/4/12 22/2/11 21/5/11
f 21/5/11 23/6/12 24/4/12
f 26/4/13 24/2/12 23/5/12
f 23/5/12 25/6/13 26/4/13
f 28/4/14 26/2/13 25/1/13
f 25/1/13 27/3/14 28/4/14
f 30/4/15 28/2/14 27/1/14
f 27/1/14 29/3/15 30/4/15
f 32/4/16 30/2/15 29/5/15
f 29/5/15 31/6/16 32/4/16
f 34/4/17 32/2/16 31/5/16
f 31/5/16 33/6/17 34/4/17
f 36/4/18 34/2/17 33/5/17
f 33/5/17 35/6/18 36/4/18
f 38/4/19 36/2/18 35/1/18
f 35/1/18 37/3/19 38/4/19
f 40/4/20 38/2/19 37/1/19
f 37/1/19 39/3/20 40/4/20
f 2/4/1 40/2/20 39/5/20
f 39/5/20 1/6/1 2/4/1
f 19/32/21 51/12/21 52/20/21
f 52/20/21 21/31/21 19/32/21
f 22/34/22 63/21/22 62/9/22
f 62/9/22 20/33/22 22/34/22
f 21/31/21 52/20/21 53/22/21
f 53/22/21 23/35/21 21/31/21
f 24/36/22 64/23/22 63/21/22
f 63/21/22 22/34/22 24/36/22
f 17/37/21 50/14/21 51/12/21
f 51/12/21 19/32/21 17/37/21
f 20/33/22 62/9/22 65/13/22
f 65/13/22 18/38/22 20/33/22
f 15/39/21 49/16/21 50/14/21
f 50/14/21 17/37/21 15/39/21
f 18/38/22 65/13/22 66/15/22
f 66/15/22 16/40/22 18/38/22
f 13/41/21 48/18/21 49/16/21
f 49/16/21 15/39/21 13/41/21
f 16/40/22 66/15/22 67/17/22
f 67/17/22 14/42/22 16/40/22
f 11/43/21 47/19/21 48/18/21
f 48/18/21 13/41/21 11/43/21
f 14/42/22 67/17/22 68/19/22
f 68/19/22 12/43/22 14/42/22
f 9/42/21 46/17/21 47/19/21
f 47/19/21 11/43/21 9/42/21
f 12/43/22 68/19/22 69/18/22
f 69/18/22 10/41/22 12/43/22
f 7/40/21 45/15/21 46/17/21
f 46/17/21 9/42/21 7/40/21
f 10/41/22 69/18/22 70/16/22
f 70/16/22 8/39/22 10/41/22
f 5/38/21 44/13/21 45/15/21
f 45/15/21 7/40/21 5/38/21
f 8/39/22 70/16/22 71/14/22
f 71/14/22 6/37/22 8/39/22
f 3/33/21 43/9/21 44/13/21
f 44/13/21 5/38/21 3/33/21
f 6/37/22 71/14/22 72/12/22
f 72/12/22 4/32/22 6/37/22
f 1/34/21 41/7/21 43/9/21
f 43/9/21 3/33/21 1/34/21
f 4/32/22 72/12/22 73/10/22
f 73/10/22 2/31/22 4/32/22
f 39/36/21 61/23/21 41/7/21
f 41/7/21 1/34/21 39/36/21
f 2/31/22 73/10/22 74/22/22
f 74/22/22 40/35/22 2/31/22
f 37/44/21 60/25/21 61/23/21
f 61/23/21 39/36/21 37/44/21
f 40/35/22 74/22/22 75/24/22
f 75/24/22 38/45/22 40/35/22
f 35/46/21 59/27/21 60/25/21
f 60/25/21 37/44/21 35/46/21
f 38/45/22 75/24/22 76/26/22
f 76/26/22 36/47/22 38/45/22
f 33/48/21 58/29/21 59/27/21
f 59/27/21 35/46/21 33/48/21
f 36/47/22 76/26/22 77/28/22
f 77/28/22 34/49/22 36/47/22
f 31/50/21 57/30/21 58/29/21
f 58/29/21 33/48/21 31/50/21
f 34/49/22 77/28/22 78/30/22
f 78/30/22 32/50/22 34/49/22
f 29/49/21 56/28/21 57/30/21
f 57/30/21 31/50/21 29/49/21
f 32/50/22 78/30/22 79/29/22
f 79/29/22 30/48/22 32/50/22
f 27/47/21 55/26/21 56/28/21
f 56/28/21 29/49/21 27/47/21
f 30/48/22 79/29/22 80/27/22
f 80/27/22 28/46/22 30/48/22
f 25/45/21 54/24/21 55/26/21
f 55/26/21 27/47/21 25/45/21
f 28/46/22 80/27/22 81/25/22
f 81/25/22 26/44/22 28/46/22
f 23/35/21 53/22/21 54/24/21
f 54/24/21 25/45/21 23/35/21
f 26/44/22 81/25/22 64/23/22
f 64/23/22 24/36/22 26/44/22
f 44/54/23 71/52/23 70/51/23
f 70/51/23 45/53/23 44/54/23
f 45/54/24 70/52/24 69/51/24
f 69/51/24 46/53/24 45/54/24
f 43/54/25 72/52/25 71/51/25
f 71/51/25 44/53/25 43/54/25
f 41/54/26 73/52/26 72/51/26
f 72/51/26 43/53/26 41/54/26
f 61/54/27 74/52/27 73/51/27
f 73/51/27 41/53/27 61/54/27
f 60/54/28 75/52/28 74/51/28
f 74/51/28 61/53/28 60/54/28
f 59/54/29 76/52/29 75/51/29
f 75/51/29 60/53/29 59/54/29
f 58/54/30 77/52/30 76/51/30
f 76/51/30 59/53/30 58/54/30
f 57/54/31 78/52/31 77/51/31
f 77/51/31 58/53/31 57/54/31
f 56/54/32 79/52/32 78/51/32
f 78/51/32 57/53/32 56/54/32
f 55/54/33 80/52/33 79/51/33
f 79/51/33 56/53/33 55/54/33
f 54/54/34 81/52/34 80/51/34
f 80/51/34 55/53/34 54/54/34
f 53/54/35 64/52/35 81/51/35
f 81/51/35 54/53/35 53/54/35
f 52/54/36 63/52/36 64/51/36
f 64/51/36 53/53/36 52/54/36
f 51/54/37 62/52/37 63/51/37
f 63/51/37 52/53/37 51/54/37
f 50/54/38 65/52/38 62/51/38
f 62/51/38 51/53/38 50/54/38
f 49/54/39 66/52/39 65/51/39
f 65/51/39 50/53/39 49/54/39
f 48/54/40 67/52/40 66/51/40
f 66/51/40 49/53/40 48/54/40
f 47/54/41 68/52/41 67/51/41
f 67/51/41 48/53/41 47/54/41
f 46/54/42 69/52/42 68/51/42
f 68/51/42 47/53/42 46/54/42

usemtl HoleMat2
f 43/12/22 42/11/22 41/10/22
f 44/14/22 42/11/22 43/12/22
f 45/16/22 42/11/22 44/14/22
f 46/18/22 42/11/22 45/16/22
f 47/19/22 42/11/22 46/18/22
f 48/17/22 42/11/22 47/19/22
f 49/15/22 42/11/22 48/17/22
f 50/13/22 42/11/22 49/15/22
f 51/9/22 42/11/22 50/13/22
f 52/21/22 42/11/22 51/9/22
f 53/23/22 42/11/22 52/21/22
f 54/25/22 42/11/22 53/23/22
f 55/27/22 42/11/22 54/25/22
f 56/29/22 42/11/22 55/27/22
f 57/30/22 42/11/22 56/29/22
f 58/28/22 42/11/22 57/30/22
f 59/26/22 42/11/22 58/28/22
f 60/24/22 42/11/22 59/26/22
f 61/22/22 42/11/22 60/24/22
f 41/10/22 42/11/22 61/22/22

