# ProBuilder 5.0.7
# https://unity3d.com/unity/features/worldbuilding/probuilder
# 8/5/2023 1:03:51 PM

mtllib ./Thorn.mtl
o Thorn

g Thorn
v -0.5 -2 0
v -0.4045085 -2 0.2938926
v 0 2 0
v 0 -2 0
v -0.1545085 -2 0.4755283
v 0.1545085 -2 0.4755283
v 0.4045085 -2 0.2938926
v 0.5 -2 -4.371139E-08
v 0.4045085 -2 -0.2938926
v 0.1545085 -2 -0.4755282
v -0.1545086 -2 -0.4755282
v -0.4045085 -2 -0.2938927

vt 0 0
vt 0.618034 0
vt 0.309017 4.111509
vt -0.5 0
vt -0.4045085 0.2938926
vt -0.1545085 0.4755283
vt 0.1545085 0.4755283
vt 0.4045085 0.2938926
vt 0.5 -4.371139E-08
vt 0.4045085 -0.2938926
vt 0.1545085 -0.4755282
vt -0.1545086 -0.4755282
vt -0.4045085 -0.2938927

vn -0.9922779 0.1240347 -3.131299E-08
vn -0.8027697 0.1240347 0.5832462
vn -5.049068E-08 1 -1.009814E-07
vn 0 -1 0
vn -0.3066307 0.1240347 0.9437124
vn 0.3066307 0.1240347 0.9437124
vn 0.8027697 0.1240347 0.5832463
vn 0.9922779 0.1240347 -6.262598E-08
vn 0.8027697 0.1240347 -0.5832462
vn 0.3066308 0.1240347 -0.9437124
vn -0.3066307 0.1240347 -0.9437124
vn -0.8027697 0.1240347 -0.5832463

usemtl DestCubeMat2
f 1/1/1 2/2/2 3/3/3
f 4/1/4 2/5/4 1/4/4
f 2/1/2 5/2/5 3/3/3
f 4/1/4 5/6/4 2/5/4
f 5/1/5 6/2/6 3/3/3
f 4/1/4 6/7/4 5/6/4
f 6/1/6 7/2/7 3/3/3
f 4/1/4 7/8/4 6/7/4
f 7/1/7 8/2/8 3/3/3
f 4/1/4 8/9/4 7/8/4
f 8/1/8 9/2/9 3/3/3
f 4/1/4 9/10/4 8/9/4
f 9/1/9 10/2/10 3/3/3
f 4/1/4 10/11/4 9/10/4
f 10/1/10 11/2/11 3/3/3
f 4/1/4 11/12/4 10/11/4
f 11/1/11 12/2/12 3/3/3
f 4/1/4 12/13/4 11/12/4
f 12/1/12 1/2/1 3/3/3
f 4/1/4 1/4/4 12/13/4

